<svg width="34" height="33" fill="none" xmlns="http://www.w3.org/2000/svg"><path d="M27.709 0h-22a5.5 5.5 0 00-5.5 5.5v22a5.5 5.5 0 005.5 5.5h22a5.5 5.5 0 005.5-5.5v-22a5.5 5.5 0 00-5.5-5.5zm2.75 27.5a2.75 2.75 0 01-2.75 2.75h-22a2.75 2.75 0 01-2.75-2.75v-22a2.75 2.75 0 012.75-2.75h22a2.75 2.75 0 012.75 2.75v22z" fill="#EAC6B6"/><path d="M16.709 8.25a8.25 8.25 0 100 16.5 8.25 8.25 0 000-16.5zm0 13.75a5.5 5.5 0 110-11 5.5 5.5 0 010 11zM27.063 8.125a2.062 2.062 0 100-4.125 2.062 2.062 0 000 4.125z" fill="#EAC6B6"/></svg>