<svg width="33" height="33" fill="none" xmlns="http://www.w3.org/2000/svg"><path d="M16.5 0a16.5 16.5 0 100 33 16.5 16.5 0 000-33zm9.336 22.001a26.23 26.23 0 00.54-4.399h4.383a14.156 14.156 0 01-1.059 4.4h-3.864zM7.164 11a26.234 26.234 0 00-.54 4.399H2.24a14.157 14.157 0 011.059-4.4h3.864zm16.418 0c.335 1.444.534 2.917.594 4.399h-6.577v-4.4h5.983zm-5.983-2.2V2.36c.532.16 1.034.41 1.485.735a9.441 9.441 0 012.528 2.871c.532.9.974 1.85 1.32 2.835h-5.333zm-6.214-2.838a9.438 9.438 0 012.528-2.87c.45-.327.952-.575 1.485-.737V8.8h-5.336c.347-.987.79-1.938 1.323-2.838zM15.401 11v4.4H8.824a23.68 23.68 0 01.594-4.399h5.983V11zM3.3 22a14.157 14.157 0 01-1.056-4.399h4.38c.055 1.48.236 2.95.54 4.4H3.3zm5.524-4.4h6.577V22H9.418a23.68 23.68 0 01-.594-4.402zm6.577 6.6v6.441a5.024 5.024 0 01-1.485-.735 9.442 9.442 0 01-2.528-2.871 15.98 15.98 0 01-1.32-2.835h5.333zm6.214 2.838a9.44 9.44 0 01-2.528 2.87c-.45.327-.953.575-1.485.737V24.2h5.336c-.347.987-.79 1.938-1.323 2.838zM17.599 22v-4.4h6.577a23.66 23.66 0 01-.594 4.399h-5.983V22zm8.778-6.6a26.23 26.23 0 00-.541-4.399H29.7a14.16 14.16 0 011.056 4.4h-4.38zm2.175-6.6h-3.3a17.457 17.457 0 00-2.59-5.204A14.394 14.394 0 0128.555 8.8h-.003zM6.389 6.39a14.26 14.26 0 013.943-2.795 17.46 17.46 0 00-2.59 5.204h-3.3a14.334 14.334 0 011.947-2.41zM4.445 24.21h3.3a17.46 17.46 0 002.59 5.204 14.398 14.398 0 01-5.89-5.214v.01zm22.166 2.412a14.26 14.26 0 01-3.943 2.795 17.452 17.452 0 002.59-5.204h3.3a14.328 14.328 0 01-1.947 2.4v.01z" fill="#EAC6B6"/></svg>