<svg width="34" height="32" fill="none" xmlns="http://www.w3.org/2000/svg"><path d="M22.73 23.214c-1.757 1.749-6.22.138-9.967-3.594-3.748-3.733-5.365-8.177-3.61-9.926l1.82-1.811a.815.815 0 011.151 0l1.86 1.852c.32.318.32.83 0 1.148l-1.263 1.258c-.978.974-.118 3.442 1.964 5.523 2.082 2.08 4.616 2.979 5.594 2.004l1.257-1.258a.815.815 0 011.152 0l1.86 1.852a.808.808 0 010 1.148l-1.819 1.804z" fill="#EAC6B6"/><path d="M21.994 22.481c-.042.035-.264.214-.118.11.153-.103-.104.063-.139.084-.048.027-.153.104-.215.104.111 0 .194-.063.076-.035-.062.014-.118.041-.173.055-.084.02-.167.042-.25.056-.291.062.16 0-.083.013a5.384 5.384 0 01-.673.007c-.098-.007-.202-.02-.299-.027.291.027-.083-.021-.153-.035a6.755 6.755 0 01-.735-.187 15.137 15.137 0 01-.73-.248c-.055-.021-.117-.049-.173-.07.18.076-.014-.006-.062-.027a32.2 32.2 0 01-.444-.208 15.494 15.494 0 01-3.151-2.094 21.147 21.147 0 01-1.617-1.534 18.726 18.726 0 01-1.305-1.528 16.58 16.58 0 01-1.062-1.61 11.676 11.676 0 01-.41-.768c-.055-.117-.118-.235-.166-.36l-.063-.138c.049.118-.048-.117-.055-.138a8.028 8.028 0 01-.444-1.493c-.014-.09-.056-.352-.028-.11-.014-.111-.028-.222-.035-.34-.014-.22.007-.441.007-.663 0-.096-.041-.103-.014.076-.007-.027.014-.096.021-.124.02-.09.042-.187.07-.277.013-.041.027-.075.034-.117.056-.2-.007.062-.028.048-.013-.007.125-.248.14-.262.02-.035.048-.063.062-.097.062-.118-.049.014-.056.07.014-.056.118-.14.16-.174l.139-.138 1.492-1.486c.028-.028.166-.131.173-.173 0 0-.097.042-.138.062.069-.027.166-.007-.014-.007-.111-.02-.132-.027-.056-.007a.76.76 0 00-.041-.013c-.008-.035-.084-.076.027.041.097.104.209.208.306.304l.819.816c.187.186.381.456.597.594 0 0 .034.042.041.042-.035.007-.07-.138-.07-.145.029.055.022.18.008-.014-.007-.07.07-.173-.007-.014-.007.014.048-.159.07-.145a.322.322 0 00-.056.055c-.264.228-.5.498-.743.74-.18.18-.375.352-.541.546-.39.442-.57.968-.618 1.548-.104 1.127.41 2.309.986 3.249.784 1.292 1.853 2.391 3.067 3.29 1.59 1.175 4.15 2.343 5.81.684l.797-.795c.09-.09.188-.172.271-.27 0 0 .056-.047.056-.054.007.027-.14.069-.146.069.139-.063.02-.035-.063-.014-.013 0-.034-.007-.048-.007.118.035.118.035 0 0 0-.007-.063-.041-.063-.041l.042.041c.063.097.18.18.257.256l.798.795c.229.228.444.463.68.677.09.083.076.11.021-.028-.049-.117-.007.208-.007-.055 0-.07.07-.166-.007-.014.02-.048.083-.131.056-.131-.042 0-.14.138-.167.166l-.368.366-.846.843c-.118.132-.264.27-.403.408a1.053 1.053 0 000 1.466 1.064 1.064 0 001.471 0l1.375-1.369c.166-.166.347-.332.506-.511.653-.747.61-1.825-.062-2.544-.444-.47-.916-.913-1.374-1.369-.16-.159-.313-.325-.48-.477-.721-.663-1.804-.719-2.553-.062-.465.408-.896.871-1.326 1.313-.035.035-.18.132-.035.042.16-.104-.02.007-.041.014-.14.055.09.007.083-.028 0 .007-.292.097-.299.083-.006-.014.285-.014.077-.014-.07 0-.14.007-.208.007-.05 0-.098 0-.146-.007-.021 0-.257-.034-.09-.007.18.028-.084-.02-.098-.02-.055-.014-.11-.021-.16-.035a4.721 4.721 0 01-.416-.125c-.055-.02-.118-.04-.173-.062-.285-.103.173.09-.104-.041a9.14 9.14 0 01-1.617-.982 11.612 11.612 0 01-1.638-1.61 8.58 8.58 0 01-.507-.698 7.586 7.586 0 01-.576-1.072c.076.18 0-.007-.014-.055-.042-.124-.09-.249-.125-.373-.035-.118-.055-.242-.083-.36-.014-.069-.021-.249 0 .007-.007-.076-.014-.145-.014-.221 0-.104.014-.207.007-.311-.007-.131-.083.242 0 .048.014-.034.02-.09.035-.117.062-.27-.084.138.027-.055.111-.194-.166.145.035-.049.222-.214.437-.435.652-.65.202-.2.417-.394.611-.608.673-.719.722-1.797.063-2.544-.43-.49-.93-.933-1.395-1.396-.174-.173-.34-.352-.52-.518-.64-.595-1.604-.733-2.347-.228-.59.4-1.069 1.009-1.568 1.507-.535.532-1.02 1.03-1.298 1.748-.368.961-.278 2.067-.049 3.056.285 1.23.854 2.405 1.513 3.476 1.597 2.6 3.88 4.873 6.476 6.484 1.068.664 2.242 1.23 3.463 1.534.992.25 2.117.36 3.102.014.493-.173.93-.428 1.312-.795.403-.387.396-1.071 0-1.465a1.07 1.07 0 00-1.492-.02z" fill="#EAC6B6"/><path d="M6.572 27.313a16.097 16.097 0 009.418 4.175c3.04.283 6.143-.367 8.829-1.79 5.233-2.765 8.543-8.42 8.384-14.316-.146-5.847-3.665-11.336-8.995-13.838C21.522.28 18.496-.253 15.54.114a16.068 16.068 0 00-8.148 3.421C2.471 7.455.395 14.207 2.172 20.214A16.73 16.73 0 003.2 22.813v-1.044c-.895 1.714-1.79 3.422-2.686 5.136-.132.249-.257.49-.388.74-.417.801.27 1.748 1.173 1.52 1.832-.463 3.671-.926 5.503-1.39.257-.061.52-.13.778-.193.548-.138.874-.746.728-1.278-.152-.553-.735-.864-1.284-.726-1.832.463-3.671.926-5.503 1.39-.257.061-.52.13-.778.193l1.173 1.52c.812-1.52 1.61-3.048 2.409-4.582.18-.34.354-.678.534-1.017.042-.076.083-.159.125-.235.028-.055.042-.082.07-.152.187-.463-.015-.829-.209-1.244-.805-1.72-1.228-3.732-1.228-5.675 0-.4.014-.808.048-1.21.014-.193.035-.38.056-.573a504.058 504.058 0 00.014-.104c.014-.11.034-.22.048-.324.132-.782.333-1.556.59-2.31l.188-.518c.034-.082.069-.172.104-.255.041-.11-.007.02-.014.034.02-.055.048-.11.076-.166a14.476 14.476 0 011.721-2.91l.084-.103c.055-.07.11-.139.173-.215.125-.152.257-.297.389-.449.25-.283.513-.553.791-.816.285-.27.583-.532.888-.78l.216-.173c.09-.076-.021.013-.028.02.035-.027.07-.055.11-.083.16-.117.32-.235.48-.345a15.6 15.6 0 011.978-1.14l.5-.229c.18-.083-.098.035.09-.034.097-.042.201-.076.298-.118a11.99 11.99 0 011.104-.366c.375-.11.756-.2 1.138-.284.201-.041.402-.076.604-.11l.284-.042c-.194.028.084-.007.153-.02a14.94 14.94 0 012.422-.076 17.592 17.592 0 011.298.117c.097.014.188.028.278.048a14.775 14.775 0 013.005.864c-.09-.034.132.056.174.076.194.09.388.18.582.277a14.139 14.139 0 011.964 1.168l.223.16c.034.027.222.165.146.11-.077-.056.11.09.145.117.084.07.167.131.243.2a14.552 14.552 0 011.617 1.583l.354.415.174.215c-.118-.146.048.069.083.117.23.304.437.615.639.94.208.332.41.677.59 1.03.083.166.166.325.242.49.042.084.077.167.118.25.021.041.035.082.056.124.007.02.083.194.035.09-.035-.09.055.138.07.173.034.083.069.172.096.255a14.849 14.849 0 01.52 1.687c.091.38.167.767.23 1.154.007.063.041.284.014.097.014.097.02.187.034.284a15.43 15.43 0 01.02 3.09c-.006.096-.02.186-.027.283-.006.069-.041.283-.013.103-.028.2-.063.408-.098.608-.069.388-.16.768-.263 1.141-.105.373-.216.74-.347 1.106-.063.173-.132.346-.195.518-.014.042-.034.083-.055.132a.567.567 0 00.014-.035 5.761 5.761 0 01-.132.29 14.38 14.38 0 01-1.11 1.991 6.563 6.563 0 01-.313.45c-.055.075-.104.145-.16.22-.027.035-.055.07-.083.111-.097.125.097-.117-.007.007-.243.311-.5.608-.77.899a15.29 15.29 0 01-1.666 1.541l-.104.083c.014-.007.125-.097.028-.02-.077.055-.146.11-.222.158a14.048 14.048 0 01-1.457.933 14.18 14.18 0 01-1.271.629c-.056.028-.257.104-.09.042-.188.076-.375.145-.562.214-.75.27-1.52.484-2.298.63-.187.034-.375.061-.562.096-.201.035.104-.007-.104.014a5.374 5.374 0 01-.333.034 15.618 15.618 0 01-2.596.035c-.229-.014-.458-.041-.68-.062a1.401 1.401 0 01-.174-.028l-.388-.062c-1.881-.332-3.422-.926-5.011-1.922a13.989 13.989 0 01-1.07-.74c-.096-.068-.02-.02 0 0l-.124-.103-.25-.207c-.18-.152-.354-.305-.527-.463-.417-.38-1.062-.408-1.472 0-.388.4-.423 1.099-.007 1.479z" fill="#EAC6B6"/></svg>