<svg width="34" height="33" fill="none" xmlns="http://www.w3.org/2000/svg"><path d="M28.333 0H5.667A5.76 5.76 0 001.66 1.61 5.42 5.42 0 000 5.5v22a5.42 5.42 0 001.66 3.89A5.755 5.755 0 005.667 33h22.666a5.76 5.76 0 004.007-1.61A5.42 5.42 0 0034 27.5v-22a5.42 5.42 0 00-1.66-3.89A5.755 5.755 0 0028.333 0zm2.834 27.5a2.71 2.71 0 01-.83 1.945 2.877 2.877 0 01-2.004.805H5.667c-.752 0-1.472-.29-2.004-.805a2.71 2.71 0 01-.83-1.945v-22c0-.73.299-1.429.83-1.945a2.877 2.877 0 012.004-.805h22.666c.752 0 1.472.29 2.004.805a2.71 2.71 0 01.83 1.945v22z" fill="#EAC6B6"/><path d="M21.878 11.1L17.985 23h-2.958l-2.618-8.058L9.706 23h-2.94l-3.91-11.9H5.71l2.686 8.364 2.805-8.364h2.55l2.72 8.432 2.771-8.432h2.635zm6.79 5.712c.68.215 1.213.578 1.599 1.088.385.499.578 1.116.578 1.853 0 1.043-.408 1.847-1.224 2.414-.805.555-1.984.833-3.536.833H19.93V11.1h5.814c1.45 0 2.561.278 3.332.833.782.555 1.173 1.309 1.173 2.261a2.86 2.86 0 01-.425 1.547c-.272.453-.658.81-1.156 1.071zm-6-3.638v2.805h2.737c.68 0 1.195-.119 1.547-.357.351-.238.527-.59.527-1.054 0-.465-.176-.81-.527-1.037-.352-.238-.867-.357-1.547-.357h-2.737zm3.213 7.752c.725 0 1.269-.119 1.632-.357.374-.238.56-.606.56-1.105 0-.986-.73-1.479-2.192-1.479h-3.213v2.941h3.213z" fill="#EAC6B6"/></svg>